<?xml version="1.0" standalone="no"?>
<!DOCTYPE svg PUBLIC "-//W3C//DTD SVG 1.1//EN" "http://www.w3.org/Graphics/SVG/1.1/DTD/svg11.dtd" >
<svg xmlns="http://www.w3.org/2000/svg">
<metadata>
Created by FontForge 20120731 at Mon Jul 11 16:17:20 2016
 By admin
</metadata>
<defs>
<font id="iconfont" horiz-adv-x="1024" >
  <font-face 
    font-family="iconfont"
    font-weight="500"
    font-stretch="normal"
    units-per-em="1024"
    panose-1="2 0 6 3 0 0 0 0 0 0"
    ascent="896"
    descent="-128"
    x-height="792"
    bbox="-1 -224 1024 896"
    underline-thickness="50"
    underline-position="-100"
    unicode-range="U+0078-F0100"
  />
<missing-glyph horiz-adv-x="374" 
d="M34 0v682h272v-682h-272zM68 34h204v614h-204v-614z" />
    <glyph glyph-name=".notdef" horiz-adv-x="374" 
d="M34 0v682h272v-682h-272zM68 34h204v614h-204v-614z" />
    <glyph glyph-name=".null" horiz-adv-x="0" 
 />
    <glyph glyph-name="nonmarkingreturn" horiz-adv-x="341" 
 />
    <glyph glyph-name="x" unicode="x" horiz-adv-x="1001" 
d="M281 543q-27 -1 -53 -1h-83q-18 0 -36.5 -6t-32.5 -18.5t-23 -32t-9 -45.5v-76h912v41q0 16 -0.5 30t-0.5 18q0 13 -5 29t-17 29.5t-31.5 22.5t-49.5 9h-133v-97h-438v97zM955 310v-52q0 -23 0.5 -52t0.5 -58t-10.5 -47.5t-26 -30t-33 -16t-31.5 -4.5q-14 -1 -29.5 -0.5
t-29.5 0.5h-32l-45 128h-439l-44 -128h-29h-34q-20 0 -45 1q-25 0 -41 9.5t-25.5 23t-13.5 29.5t-4 30v167h911zM163 247q-12 0 -21 -8.5t-9 -21.5t9 -21.5t21 -8.5q13 0 22 8.5t9 21.5t-9 21.5t-22 8.5zM316 123q-8 -26 -14 -48q-5 -19 -10.5 -37t-7.5 -25t-3 -15t1 -14.5
t9.5 -10.5t21.5 -4h37h67h81h80h64h36q23 0 34 12t2 38q-5 13 -9.5 30.5t-9.5 34.5q-5 19 -11 39h-368zM336 498v228q0 11 2.5 23t10 21.5t20.5 15.5t34 6h188q31 0 51.5 -14.5t20.5 -52.5v-227h-327z" />
    <glyph glyph-name="uniE601" unicode="&#xe601;" 
d="M512 -380zM736 -21h-448q-17 0 -29 12.5t-12 29.5v726q0 17 12 29.5t29 12.5h448q17 0 29 -12.5t12 -29.5v-726q0 -17 -12 -29.5t-29 -12.5zM288 755q-7 0 -7 -8v-726q0 -8 7 -8h448q7 0 7 8v726q0 8 -7 8h-448zM258 193h508v-34h-508v34zM512 90zM490 90q0 9 6.5 15.5
t15.5 6.5t15.5 -6.5t6.5 -15.5t-6.5 -15.5t-15.5 -6.5t-15.5 6.5t-6.5 15.5z" />
    <glyph glyph-name="uniE602" unicode="&#xe602;" 
d="M303 645q0 28 -16 47.5t-38.5 19.5t-38.5 -19.5t-16 -47.5v-75q0 -28 16 -47.5t38.5 -19.5t38.5 19.5t16 47.5v75zM895 225v346q0 18 -6 31t-15 19t-17.5 8.5t-14.5 2.5h-6h-30v-107q0 -20 -11.5 -31.5t-22.5 -12.5l-11 -2h-92q-22 0 -33.5 11.5t-12.5 22.5l-1 12v107
h-279v-106q0 -21 -11.5 -33t-23.5 -13l-11 -1h-92q-13 0 -22 5t-13.5 12t-7 13.5t-3.5 11.5v5v106h-30q-26 0 -41.5 -15t-17.5 -31l-3 -15v-591q0 -50 51 -60l11 -1h493h41l-38 41q-43 44 -46 101.5t38 100.5q42 42 102.5 42.5t103.5 -41.5zM861 91l-42 -43l-40 44
q-20 20 -45 22.5t-41 -13.5t-13.5 -41t22.5 -45l72 -72l6 -6l4 -4q22 -22 54 -10q4 2 7 3q12 6 21 15l72 73q20 19 22.5 44.5t-13.5 41.5t-41 13t-45 -22zM768 645q0 28 -16.5 47.5t-39.5 19.5q-22 0 -37 -19.5t-15 -47.5v-75q0 -28 15.5 -47.5t38.5 -19.5t38.5 19.5
t15.5 47.5v75zM297 541z" />
    <glyph glyph-name="uniE604" unicode="&#xe604;" 
d="M512 749q94 0 179 -36q83 -35 147 -99t99 -147q36 -85 36 -179t-36 -179q-35 -83 -99 -147t-147 -99q-85 -36 -179 -36t-179 36q-83 35 -147 99t-99 147q-36 85 -36 179t36 179q35 83 99 147t147 99q85 36 179 36zM512 800q-104 0 -199 -40.5t-163.5 -109t-109 -163.5
t-40.5 -199t40.5 -199t109 -163.5t163.5 -109t199 -40.5t199 40.5t163.5 109t109 163.5t40.5 199t-40.5 199t-109 163.5t-163.5 109t-199 40.5zM408 240h-1l-38 -17l-8 40l55 24h43v-193h-51v146zM520 94v33l27 23q32 28 45.5 44t13.5 30q0 24 -29 24q-19 0 -41 -16l-14 38
q27 21 66 21q33 0 52.5 -17t19.5 -46q0 -38 -45 -74l-19 -15v-1h67v-44h-143zM655 555q0 10 -7.5 17t-17.5 7h-27q-10 0 -17 -7t-7 -17v-105q0 -10 7 -17.5t17 -7.5h27q10 0 17.5 7.5t7.5 17.5v105zM445 555q0 10 -7.5 17t-17.5 7h-27q-10 0 -17 -7t-7 -17v-105
q0 -10 7 -17.5t17 -7.5h27q10 0 17.5 7.5t7.5 17.5v105zM724 506h-57v-56q0 -15 -11 -26t-26 -11h-27q-15 0 -25.5 11t-10.5 26v56h-110v-56q0 -15 -11 -26t-26 -11h-27q-15 0 -25.5 11t-10.5 26v56h-58q-18 0 -30.5 -12.5t-12.5 -30.5v-425q0 -18 12.5 -30.5t30.5 -12.5
h425q18 0 30.5 12.5t12.5 30.5v425q0 18 -12.5 30.5t-30.5 12.5zM730 38q0 -6 -6 -6h-425q-6 0 -6 6v313h437v-313z" />
    <glyph glyph-name="uniE605" unicode="&#xe605;" 
d="M574 165q-96 91 -110 104q-24 23 -30 37q-7 20 -1.5 39.5t20.5 33.5q29 27 82.5 77t77.5 73q10 9 0 18q-1 1 -1 2q-25 43 -78 37q-9 -1 -80 -1q-18 0 -29.5 10.5t-11.5 27.5t11 28.5t29 11.5h144q20 0 34 -16q16 -20 66 -79t77 -91q7 -8 11.5 -17t9.5 -23t7 -19
q12 -28 19 -33t37 -5h71q19 0 30 -11t11 -28t-11.5 -27.5t-29.5 -10.5q-14 -1 -67 -0.5t-67 0.5q-30 -1 -41 27q-1 3 -10.5 25.5t-13.5 33.5q-5 13 -15 5q-63 -44 -115 -80q-10 -7 -3 -19q40 -56 87 -125q16 -23 8.5 -42t-34.5 -26q-88 -21 -223 -53q-18 -5 -32.5 3
t-18.5 25t4.5 30t26.5 18q14 3 146 35q10 2 13 5zM853 479q-33 0 -56.5 24t-23.5 57q1 32 24 55t56 24q33 0 57 -23.5t23 -56.5q0 -32 -23.5 -56t-56.5 -24zM353 471h-92q-14 0 -22 7t-8 18t8.5 18t21.5 7q95 1 184 0q14 0 21.5 -7t7.5 -18q1 -25 -29 -25h-92zM265 432h91
q29 0 29 -25q1 -25 -30 -25q-85 -1 -183 0q-13 0 -21 6.5t-9 17.5q0 12 8.5 19t21.5 7h93zM176 343q83 0 91 -1q14 0 22 -6.5t8 -17.5t-8 -18.5t-21 -7.5h-185q-5 0 -12 2q-19 7 -17 28q3 20 25 20h97v1zM118 61q-10 13 -6.5 30.5t18.5 28.5l267 197q5 2 8 2.5t6 -3.5
t4.5 -7.5t5 -10t5.5 -10.5q3 -3 8 -8.5t7.5 -9t5 -7.5t1 -8t-5.5 -7l-264 -193q-15 -11 -32.5 -9.5t-27.5 15.5z" />
    <glyph glyph-name="uniE610" unicode="&#xe610;" 
d="M512 640q50 0 85.5 -35.5t35.5 -85.5t-35.5 -85.5t-85.5 -35.5t-85.5 35.5t-35.5 85.5t35.5 85.5t85.5 35.5zM226 151q-2 -14 6 -25t22 -13.5t25 6t13 21.5q13 82 75.5 135.5t146 53.5t146 -53.5t75.5 -135.5q2 -12 11.5 -20t21.5 -8h5q14 3 22 14t6 25q-12 75 -58 133.5
t-114 87.5q33 26 52 64.5t19 82.5q0 78 -55 133t-133 55t-133 -55t-55 -133q0 -44 19.5 -82.5t52.5 -65.5q-67 -29 -112.5 -87.5t-57.5 -132.5zM512 896q-104 0 -199 -40.5t-163.5 -109t-109 -163.5t-40.5 -199q0 -160 91 -292q8 -11 22 -13.5t25 5.5t13.5 21.5t-5.5 24.5
q-79 115 -79 254q0 90 35 172.5t95 142.5t142.5 95t172.5 35t172.5 -35t142.5 -95t95 -142.5t35 -172.5t-35 -172.5t-95 -142.5t-142.5 -95t-172.5 -35q-139 0 -254 79q-11 8 -24.5 5.5t-21.5 -13.5t-5.5 -25t13.5 -22q132 -91 292 -91q104 0 199 40.5t163.5 109t109 163.5
t40.5 199t-40.5 199t-109 163.5t-163.5 109t-199 40.5z" />
    <glyph glyph-name="uniE612" unicode="&#xe612;" 
d="M826 340q-11 0 -19 -7v18q0 11 -8 19t-19 8q-17 0 -24 -16v12q0 11 -8 19t-19 8q-15 0 -23 -14v94q0 11 -7.5 19t-19 8t-19 -8t-7.5 -19v-196l-12 -9v62q0 9 -8 15t-19 6t-19 -6t-8 -15v-113v-44q0 -34 16.5 -64t44.5 -48v-66h152v72q53 40 53 106v138q0 8 -8 14.5
t-19 6.5zM775 409h5q15 0 28 -7h28v41h-99v-12q24 -3 38 -22zM572 402h50v41h-50v-41zM572 638v-42h152q-9 20 -9 42h-143zM572 499h52q6 18 21 29t34.5 11t34.5 -11t21 -29h101v41h-264v-41zM449 346h-264v-42h264v42zM852 783h-683q-43 0 -73.5 -31.5t-30.5 -75.5v-398
q0 -44 30.5 -75.5t73.5 -31.5h387v10v62h-30v467h230h96q13 0 22.5 -10t9.5 -24v-93v-402v-3v-2q32 10 52.5 38t20.5 64v398q0 44 -31 75.5t-74 31.5zM495 243h-326q-13 0 -22.5 10.5t-9.5 24.5v398q0 14 9.5 24t22.5 10h326v-467zM509 726q-9 0 -15.5 6.5t-6.5 15.5t6.5 15
t15.5 6t15 -6t6 -15t-6 -15.5t-15 -6.5zM449 443h-264v-41h264v41zM449 638h-264v-42h264v42zM756 638q0 -23 16.5 -39t39.5 -16h72l-128 127v-72zM449 540h-264v-41h264v41z" />
    <glyph glyph-name="uniE625" unicode="&#xe625;" 
d="M512 -76q-93 0 -178.5 36.5t-147 98t-98 147t-36.5 178.5t36.5 178.5t98 147t147 98t178.5 36.5t178.5 -36.5t147 -98t98 -147t36.5 -178.5t-36.5 -178.5t-98 -147t-147 -98t-178.5 -36.5zM512 800q-113 0 -209 -55.5t-151.5 -151.5t-55.5 -209t55.5 -209t151.5 -151.5
t209 -55.5t209 55.5t151.5 151.5t55.5 209t-55.5 208.5t-151.5 151.5t-209 56zM698 617h-372q-21 0 -36 -15t-15 -36v-364q0 -21 15 -36t36 -15h372q21 0 36 15t15 36v364q0 21 -15 36t-36 15zM580 554q55 0 93.5 -38t38.5 -91.5t-38.5 -91t-93.5 -37.5t-93.5 37.5t-38.5 91
t38.5 91.5t93.5 38zM350 518h56q6 0 11 -6t5 -13.5t-5 -14t-11 -6.5h-56q-6 0 -10.5 6.5t-4.5 14t4.5 13.5t10.5 6zM347 387h80q5 0 8.5 -6.5t3.5 -13.5t-3.5 -13.5t-8.5 -6.5h-80q-5 0 -8.5 6.5t-3.5 13.5t3.5 13.5t8.5 6.5zM673 218h-322q-7 0 -12 6.5t-5 14t5 13.5t12 6
h322q7 0 12 -6t5 -13.5t-5 -14t-12 -6.5zM573 396h4h3h74q14 0 14 14.5t-14 14.5h-59v50q0 9 -6.5 15t-15.5 6t-15.5 -6t-6.5 -15v-57q0 -9 6.5 -15.5t15.5 -6.5z" />
    <glyph glyph-name="uniE62C" unicode="&#xe62c;" 
d="M732 566q0 101 -71.5 172.5t-172.5 71.5t-172.5 -71.5t-71.5 -172.5q0 -77 44 -140q6 -9 16.5 -11t19.5 4.5t10.5 16.5t-4.5 19q-35 50 -35 111q0 80 56.5 136.5t136.5 56.5t136.5 -56.5t56.5 -136.5t-56.5 -136.5t-136.5 -56.5v0q-79 0 -151 -31q-70 -29 -124 -83
t-84 -124q-30 -72 -30 -151q0 -11 7.5 -18.5t18 -7.5t18 7.5t7.5 18.5q0 91 45.5 169t123 123.5t169.5 45.5v0q101 0 172.5 71.5t71.5 172.5zM534 246.5q0 -10.5 7.5 -18t18.5 -7.5h340q10 0 17.5 7.5t7.5 18t-7.5 18t-17.5 7.5h-340q-11 0 -18.5 -7.5t-7.5 -18zM900 142
h-340q-11 0 -18.5 -7.5t-7.5 -18t7.5 -18t18.5 -7.5h340q10 0 17.5 7.5t7.5 18t-7.5 18t-17.5 7.5zM900 12h-340q-11 0 -18.5 -7.5t-7.5 -18.5t7.5 -18t18.5 -7h340q10 0 17.5 7t7.5 18t-7.5 18.5t-17.5 7.5z" />
    <glyph glyph-name="uniE633" unicode="&#xe633;" 
d="M257.5 564q21.5 0 37 19t15.5 45v72q0 27 -15.5 45.5t-37 18.5t-37 -18.5t-15.5 -45.5v-72q0 -26 15.5 -45t37 -19zM611 237q16 16 38 27h-11q-13 0 -22 9t-9 22t9 22.5t22 9.5h63q13 0 22.5 -9.5t9.5 -22.5q0 -10 -7 -19q48 -5 82 -38q1 0 18.5 15t34.5 29l17 15l-1 332
q0 18 -5.5 30.5t-14 17.5t-17 8t-14.5 3h-5h-29v-103q0 -19 -11 -30t-21 -13l-11 -1h-89q-20 0 -31.5 11t-11.5 22l-1 11v103h-268v-102q0 -21 -11 -32t-22 -12l-12 -1h-87q-20 0 -31 11.5t-12 22.5l-1 11v102h-30q-24 0 -39 -15t-17 -29l-3 -15v-567q0 -49 50 -57l9 -1h474
h39l-36 39q-42 42 -45 97t37 97zM638 458h63q13 0 22.5 -9t9.5 -22t-9.5 -22.5t-22.5 -9.5h-63q-13 0 -22 9.5t-9 22.5t9 22t22 9zM333 146h-63q-13 0 -22 9t-9 22t9 22.5t22 9.5h63q13 0 22.5 -9.5t9.5 -22.5t-9.5 -22t-22.5 -9zM333 264h-63q-13 0 -22 9t-9 22t9 22.5
t22 9.5h63q13 0 22.5 -9.5t9.5 -22.5t-9.5 -22t-22.5 -9zM333 395h-63q-13 0 -22 9.5t-9 22.5t9 22t22 9h63q13 0 22.5 -9t9.5 -22t-9.5 -22.5t-22.5 -9.5zM517 146h-63q-13 0 -22 9t-9 22t9 22.5t22 9.5h63q13 0 22.5 -9.5t9.5 -22.5t-9.5 -22t-22.5 -9zM517 264h-63
q-13 0 -22 9t-9 22t9 22.5t22 9.5h63q13 0 22.5 -9.5t9.5 -22.5t-9.5 -22t-22.5 -9zM517 395h-63q-13 0 -22 9.5t-9 22.5t9 22t22 9h63q13 0 22.5 -9t9.5 -22t-9.5 -22.5t-22.5 -9.5zM704 564q22 0 37 19t15 45v72q0 27 -16 45.5t-38 18.5q-21 0 -35.5 -18.5t-14.5 -45.5
v-72q0 -26 15 -45t37 -19zM927.5 177q-15.5 15 -39.5 12.5t-43 -21.5l-41 -41l-38 43q-19 19 -43 21.5t-39.5 -13t-13 -39.5t21.5 -43l69 -69l6 -6l4 -4q21 -21 52 -9q4 1 7 3q11 5 20 14l69 70q19 18 21.5 42.5t-13 39.5z" />
    <glyph glyph-name="uniE63E" unicode="&#xe63e;" 
d="M907 780h-791q-35 0 -59.5 -25t-24.5 -59v-791q0 -35 24.5 -59.5t59.5 -24.5h791q35 0 59.5 24.5t24.5 59.5v791q0 34 -24.5 59t-59.5 25zM399 709q18 0 30.5 -13t12.5 -31t-12.5 -30.5t-30.5 -12.5t-31 12.5t-13 30.5t13 31t31 13zM274 709q18 0 30.5 -13t12.5 -31
t-12.5 -30.5t-30.5 -12.5t-31 12.5t-13 30.5t13 31t31 13zM147 709q18 0 30.5 -13t12.5 -31t-12.5 -30.5t-30.5 -12.5t-31 12.5t-13 30.5t13 31t31 13zM928 -95q0 -9 -6 -15t-15 -6h-791q-8 0 -14 6t-6 15v651h832v-651zM448 -7q-21 0 -36 15l-192 192q-15 15 -15 36t15 36
t36 15t36 -15l156 -155l283 283q15 15 36.5 15t36.5 -15t15 -36t-15 -36l-320 -320q-15 -15 -36 -15z" />
    <glyph glyph-name="uniE643" unicode="&#xe643;" 
d="M512 -64q-187 0 -317.5 130.5t-130.5 317.5t130.5 317.5t317.5 130.5t317.5 -130.5t130.5 -317.5t-130.5 -317.5t-317.5 -130.5zM512 749q-97 0 -181.5 -49.5t-134 -134t-49.5 -181.5q0 -137 96 -243q27 13 48 16.5t55 15.5l89 38v64q-3 2 -7.5 7t-13 26.5t-11.5 49.5
q-13 0 -19 13t-6 26q0 2 -0.5 11t-0.5 16.5t0.5 16t4 12t8.5 1.5q-12 64 -12 71q5 41 42.5 75t91.5 34q63 -5 96 -35.5t38 -73.5q0 -45 -6 -71q5 2 8.5 -1.5t4.5 -12t1 -16t-0.5 -16.5t-0.5 -11q0 -13 -6.5 -24.5t-19.5 -7.5q-3 -29 -11 -49.5t-14 -27.5l-7 -6v-64
q20 -7 90 -39q33 -12 54.5 -15t47.5 -17q96 107 96 243q-3 95 -53.5 177.5t-135.5 132t-182 49.5z" />
    <glyph glyph-name="uniE644" unicode="&#xe644;" 
d="M512 896q-139 0 -257 -68.5t-186.5 -186.5t-68.5 -257t68.5 -257t186.5 -186.5t257 -68.5t257 68.5t186.5 186.5t68.5 257t-68.5 257t-186.5 186.5t-257 68.5zM574 272l-109 -109q-36 -35 -86 -35t-86 35l-2 2q-35 36 -35 86t35 86l77 76q-1 -35 12 -67l-49 -49
q-20 -19 -20 -46t20 -46l2 -2q19 -20 46 -20t46 20l109 109q20 19 20 46t-20 46l-2 2q-6 6 -13 10l40 40q7 -5 13 -10l2 -2q35 -36 35 -86t-35 -86zM733 431l-77 -76q1 34 -12 66l50 50q19 19 19 46t-19 46l-2 3q-20 19 -47 19t-46 -19l-109 -110q-19 -19 -19 -46t19 -46
l2 -2q6 -6 13 -10l-40 -40q-8 6 -13 10l-2 2q-35 36 -35 86t35 86l109 109q36 35 86 35t86 -35l2 -2q35 -36 35 -86t-35 -86zM733 431z" />
    <glyph glyph-name="uniE647" unicode="&#xe647;" 
d="M543 67v-128h286v-67h-286h-62h-286v61h286v128h-481v835h1024v-829h-481zM963 835h-902v-707h415h62h414v707h11z" />
    <glyph glyph-name="uniE64B" unicode="&#xe64b;" 
d="M512 896q104 0 199 -40.5t163.5 -109t109 -163.5t40.5 -199t-40.5 -199t-109 -163.5t-163.5 -109t-199 -40.5t-199 40.5t-163.5 109t-109 163.5t-40.5 199t40.5 199t109 163.5t163.5 109t199 40.5zM696 633h-368q-38 0 -65 -27t-27 -65v-243q0 -38 27 -65t65 -27h116
q2 -1 8.5 -8t17.5 -9l-1 -40h-76q-18 0 -31 -12.5t-14 -30.5h328q-1 18 -14 30.5t-31 12.5h-76l-3 38q2 1 11.5 5.5t14.5 12.5l118 1q38 0 65 27t27 65v243q0 38 -27 65t-65 27zM300 558h424v-280h-424v280z" />
    <glyph glyph-name="uniE653" unicode="&#xe653;" 
d="M830 -49h-670q-72 0 -100 49q-25 43 11 105l3 6l284 396v300q0 26 18 26h259q21 0 21 -26v-309l269 -387v-1q35 -60 6 -110q-28 -49 -101 -49zM115 81q-19 -34 -8 -54q12 -21 53 -21h670q41 0 53 21q11 20 -8 53l-270 403q-3 3 -3 15v280h-190v-280q0 -2 -9 -15zM667 254
q-64 0 -151 51q-31 19 -72 23t-73.5 -2t-67 -18t-47 -18t-19.5 -10q-11 -7 -18 5t5 18q9 5 23 12t51.5 20t72.5 19t79.5 1t79.5 -26q42 -25 75 -37t59 -10.5t40 5t37 13.5l10 4q12 5 17.5 -7.5t-7.5 -17.5l-9 -4q-50 -21 -85 -21zM306.5 41q-30.5 0 -52.5 21.5t-22 52.5
t22 52.5t52.5 21.5t52.5 -21.5t22 -52.5t-22 -52.5t-52.5 -21.5zM306.5 162q-19.5 0 -33.5 -14t-14 -33t14 -33t33.5 -14t33.5 14t14 33t-14 33t-33.5 14zM696.5 41q-26.5 0 -45.5 18.5t-19 45t19 45.5t45.5 19t45 -19t18.5 -45.5t-18.5 -45t-45 -18.5zM696 142
q-15 0 -26 -11t-11 -26t11 -26t26 -11t26 11t11 26t-11 26t-26 11zM483.5 155q-22.5 0 -38.5 16t-16 38.5t16 38.5t38.5 16t38.5 -16t16 -38.5t-16 -38.5t-38.5 -16zM483.5 237q-11.5 0 -19.5 -8.5t-8 -19.5t8 -19t19.5 -8t19.5 8t8 19.5t-8 19.5t-19.5 8zM561.5 576
q-5.5 0 -9.5 4t-4 10v149q0 5 4 9t9.5 4t9.5 -4t4 -9v-149q0 -6 -4 -10t-9.5 -4zM561.5 508q-5.5 0 -9.5 4t-4 10v13q0 6 4 10t9.5 4t9.5 -4t4 -10v-13q0 -6 -4 -10t-9.5 -4z" />
    <glyph glyph-name="uniE656" unicode="&#xe656;" 
d="M743 574q0 108 -74.5 184.5t-179 76.5t-179 -76.5t-74.5 -184.5q0 -72 35.5 -133t95.5 -96q-117 -43 -190 -148t-73 -236q0 -12 8 -20t19.5 -8t19.5 8t8 20q0 95 46 176t124.5 128.5t170.5 47.5q4 0 7 1q99 7 167.5 82t68.5 178zM489.5 369q-82.5 0 -140.5 60t-58 145
t58 145t140.5 60t140.5 -60t58 -145t-58 -145t-140.5 -60zM542 221.5q0 -11.5 8 -20t20 -8.5h322q12 0 20 8.5t8 20t-8 20t-20 8.5h-322q-12 0 -20 -8.5t-8 -20zM892 134h-322q-12 0 -20 -8.5t-8 -20t8 -20t20 -8.5h322q12 0 20 8.5t8 20t-8 20t-20 8.5zM892 4h-322
q-12 0 -20 -8.5t-8 -20.5t8 -20t20 -8h322q12 0 20 8t8 20t-8 20.5t-20 8.5z" />
    <glyph glyph-name="uniE665" unicode="&#xe665;" 
d="M334 94h-112q-7 0 -12.5 -5.5t-5.5 -13t5.5 -13t12.5 -5.5h112q8 0 13.5 5.5t5.5 13t-5.5 13t-13.5 5.5zM857 805h-490q-41 0 -74 -35t-33 -78v-186h-84q-43 0 -73 -30.5t-30 -72.5v-337q0 -42 30 -72.5t73 -30.5h205q40 0 69.5 27t32.5 67h263q7 0 12.5 5.5t5.5 13
t-5.5 13t-12.5 5.5h-131v75h242q41 0 67.5 29t26.5 73v421q0 44 -26 78.5t-68 34.5zM428 66q0 -19 -13.5 -33t-33.5 -14h-205q-20 0 -33.5 14t-13.5 33v337q0 19 13.5 32.5t33.5 13.5h205q20 0 33.5 -13.5t13.5 -32.5v-337zM577 94h-93v75h93v-75zM895 271q0 -18 -9.5 -32
t-28.5 -14h-373v178q0 42 -30 72.5t-73 30.5h-65v186q0 20 16.5 38.5t34.5 18.5h490q16 0 27 -18t11 -39v-421z" />
    <glyph glyph-name="uniE676" unicode="&#xe676;" 
d="M956 89h-298q-13 0 -21.5 8.5t-8.5 20.5q0 13 8.5 21.5t21.5 8.5h299q12 0 20.5 -8.5t8.5 -21t-8.5 -21t-21.5 -8.5zM956 269h-298q-13 0 -21.5 8.5t-8.5 20.5q0 13 8.5 21.5t21.5 8.5h299q12 0 20.5 -8.5t8.5 -21.5q0 -12 -8.5 -20.5t-21.5 -8.5zM508 331v-3
q-98 0 -180.5 -52t-130 -141.5t-47.5 -195.5q0 -10 1 -29h-120q-1 19 -1 29q0 149 74 272t196 185q-43 38 -67 90t-24 110q0 111 78.5 190t190.5 79q111 0 189.5 -79t78.5 -190q1 -102 -68 -177.5t-170 -87.5zM478.5 746q-61.5 0 -105.5 -43.5t-44 -105.5t44 -105.5
t105.5 -43.5t105.5 44t44 105.5t-44 105t-105.5 43.5zM658 -30h299q12 0 20.5 -9t8.5 -21t-8.5 -21t-20.5 -9h-299q-13 0 -21.5 9t-8.5 21q-1 12 8 21t22 9z" />
    <glyph glyph-name="uniE684" unicode="&#xe684;" 
d="M512 115q-76 0 -130.5 54.5t-54.5 130.5t54.5 130.5t130.5 54.5t130.5 -54.5t54.5 -130.5t-54.5 -130.5t-130.5 -54.5zM512 413q-47 0 -80 -33t-33 -80t33 -80t80 -33t80 33t33 80t-33 80t-80 33zM547 -196h-70q-30 0 -51 20.5t-21 50.5v42q0 3 -3 7t-5 5t-3 1l-60 25
q-2 0 -3 1q-2 1 -5 1q-6 0 -9 -3l-30 -30q-21 -21 -50.5 -21t-50.5 21l-50 50q-21 21 -21 50.5t21 50.5l30 30q2 2 2.5 7t-0.5 7t-1 3l-25 60q0 1 -1 3t-5 5t-7 3h-42q-30 0 -50.5 21t-20.5 51v70q0 30 20.5 51t50.5 21h42q3 0 7 3t5 5t1 3l25 60q0 1 1 3q4 8 -2 14l-30 30
q-21 21 -21 50.5t21 50.5l50 50q21 21 50.5 21t50.5 -21l30 -30q3 -3 10 -3q3 0 4.5 1t2.5 1l60 25q1 0 3 1t5 5t3 7v42q0 30 21 50.5t51 20.5h70q30 0 51 -20.5t21 -50.5v-42q0 -3 3 -7t5 -5t3 -1l60 -25q1 0 2.5 -1t4.5 -1q7 0 10 3l30 30q21 21 50.5 21t50.5 -21l50 -50
q21 -21 21 -50.5t-21 -50.5l-30 -30q-6 -6 -2 -14q1 -2 1 -3l25 -60q0 -1 1 -3t5 -5t7 -3h42q30 0 50.5 -21t20.5 -51v-70q0 -30 -20.5 -51t-50.5 -21h-42q-3 0 -7 -3t-5 -5t-1 -3l-25 -60q0 -1 -1 -3t-0.5 -7t2.5 -7l30 -30q21 -21 21 -50.5t-21 -50.5l-50 -50
q-21 -21 -50.5 -21t-50.5 21l-30 30q-3 3 -9 3q-3 0 -5 -1t-3 -1l-60 -25q-1 0 -3 -1t-5 -5t-3 -7v-42q0 -30 -21 -50.5t-51 -20.5zM477 -125h70v42q0 26 16.5 49t40.5 31l57 23q17 9 37 9q36 0 60 -24l29 -30l50 49l-30 30q-18 19 -22.5 46.5t7.5 50.5l23 57q8 24 31 40.5
t49 16.5h42v70h-42q-26 0 -49 16.5t-31 40.5l-23 57q-12 23 -7.5 50.5t22.5 46.5l30 29l-50 50l-29 -30q-24 -24 -61 -24q-19 0 -36 9l-57 23q-24 8 -40.5 31t-16.5 49v42h-70v-42q0 -26 -16.5 -49t-40.5 -31l-57 -23q-17 -9 -36 -9q-37 0 -61 24l-30 30l-49 -49l30 -30
q18 -19 22.5 -46.5t-7.5 -50.5l-23 -57q-8 -24 -31 -40.5t-49 -16.5h-42v-70h42q26 0 49 -16.5t31 -40.5l23 -57q12 -23 7.5 -50.5t-22.5 -46.5l-30 -30l49 -49l30 30q24 24 60 24q20 0 37 -9l57 -23q24 -8 40.5 -31t16.5 -49v-42z" />
    <glyph glyph-name="uniE6AD" unicode="&#xe6ad;" 
d="M787 48q-42 -18 -81 -11.5t-69.5 38t-35.5 75.5q-4 29 4 51q3 10 -5 18q-138 137 -254 254q-8 8 -19 5q-55 -16 -103.5 14t-59.5 85q-9 45 9 81q2 0 4 -1t3.5 -3t2.5 -3l35 -35q26 -26 40 -39q15 -16 33 -17t32 13q14 13 13 31.5t-16 33.5l-84 84q63 26 117 -2
q41 -21 59.5 -64t5.5 -87q-3 -11 6 -19q149 -149 252 -253q9 -8 22 -5q78 19 131 -39q51 -57 26 -130q-3 -9 -5.5 -10t-10.5 6q-24 25 -76 76q-21 21 -47 11q-25 -9 -28 -35q-3 -22 16 -41q9 -9 83 -82zM162 102q-3 23 17 44q36 35 105.5 104.5t103.5 104.5q7 7 14 0
q35 -36 80 -80q7 -6 0 -13l-92 -92q-76 -76 -118 -117q-25 -25 -57.5 -19.5t-47.5 36.5q-5 11 -5 32zM605 432l-7 6q-32 32 -33 32q-8 7 1 16l35 35q27 27 42 41q37 35 49 68q23 63 86 86q4 1 17.5 9t20.5 8q7 -1 17.5 -13.5t13.5 -14.5q19 -14 6 -35q-9 -15 -34 -65
q-6 -12 -17 -16q-85 -35 -150 -110l-40 -40q0 -1 -7 -7z" />
    <glyph glyph-name="uniE71A" unicode="&#xe71a;" 
d="M664 346q-47 0 -80.5 -33.5t-33.5 -80.5t33.5 -80.5t80.5 -33.5t80.5 33.5t33.5 80.5t-33.5 80.5t-80.5 33.5zM740 212h-95v19v20v57h38v-57h57v-39zM664 574h-38v-57h-38v57h-228v-57h-38v57h-57q-8 0 -13.5 -5.5t-5.5 -12.5v-13v-26v-57h438v56v26v13q0 8 -6 13
q-5 6 -14 6zM512 896q-139 0 -257 -68.5t-186.5 -186.5t-68.5 -257t68.5 -257t186.5 -186.5t257 -68.5t257 68.5t186.5 186.5t68.5 257t-68.5 257t-186.5 186.5t-257 68.5zM303 327v38h133v-38h-133zM436 270v-38h-133v38h133zM246 422v-228q0 -8 5.5 -13.5t13.5 -5.5h218
q9 -21 23 -38h-241q-24 0 -41 16.5t-17 40.5v362q0 23 17 40t41 17h57v76h38v-77h228v77h38v-77h38q24 0 40.5 -16.5t16.5 -40.5v-95v-38v-10q-15 7 -35 10h-440zM664 79q-63 0 -107.5 44.5t-44.5 107.5t44.5 107.5t107.5 44.5t107.5 -44.5t44.5 -107.5q1 -62 -44 -107
t-108 -45z" />
    <glyph glyph-name="uniE78D" unicode="&#xe78d;" 
d="M946 83l-300 520q-6 11 -6 23v142h96q14 0 23 9.5t9 22.5t-9 22.5t-23 9.5h-128q-13 0 -22.5 -9.5t-9.5 -22.5v-179q0 -25 12 -46l303 -524q9 -17 0 -34q-11 -17 -30 -17h-763q-21 0 -29 17q-10 16 0 34l302 517q12 21 12 45l1 187q0 13 -9 22.5t-23 9.5h-128
q-13 0 -22.5 -9.5t-9.5 -22.5t9.5 -22.5t22.5 -9.5h96l-1 -150q0 -13 -7 -23l-299 -512q-28 -49 0 -98q29 -49 85 -49h763q27 0 49.5 13t35.5 36q14 23 14 49t-14 49z" />
    <glyph glyph-name="uF0086" unicode="&#xf0086;" 
d="M832 -81q7 0 11.5 -5t4.5 -12v-49h-629v49q0 7 5 12t12 5h55q1 61 16.5 114.5t37 89.5t42.5 66.5t36 58.5t15 51q0 24 -15 46t-37 46t-43.5 57t-37 93t-15.5 139h-54q-7 0 -12 5t-5 12v50h629v-50q0 -7 -4.5 -12t-11.5 -5h-51q0 -79 -15.5 -139t-37 -93t-43.5 -57
t-37 -46t-15 -46q0 -23 15 -51t36 -58.5t42.5 -66.5t37 -89.5t16.5 -114.5h52zM587 299q0 24 15 46t37 46t43.5 57t37 93t15.5 139h-399q0 -79 15.5 -139t37 -93t43.5 -57t37 -46t15 -46q0 -23 -15 -50.5t-36.5 -57.5t-42.5 -66.5t-36.5 -90.5t-16.5 -115h25q11 35 59 61
l44 22q42 21 50 28.5t19 33.5q11 -26 19 -33.5t49 -28.5l43 -22q49 -26 59 -61h30q-1 61 -16.5 115t-36.5 90.5t-42.5 66.5t-36.5 57.5t-15 50.5zM553 348q-6 -12 -10 -45q-1 -9 -5 -29q-3 20 -4 29q-4 33 -10 45t-34 42l-42 45q-42 46 -54 66q74 -47 144 -47t144 47
q-12 -20 -54 -66l-42 -45q-27 -30 -33 -42z" />
    <glyph glyph-name="uF0100" unicode="&#xf0100;" 
d="M513 352q-108 0 -184 -74t-76 -179t76 -179t184 -74t184.5 74t76.5 179t-76.5 179t-184.5 74zM513 -9q-46 0 -78.5 31.5t-32.5 76.5t32.5 76.5t78.5 31.5t79 -31.5t33 -76.5t-33 -76.5t-79 -31.5zM956 582l-117 153q-8 11 -23 12h1h-606q-14 0 -23 -12l-117 -153
q-12 -15 -2 -32l159 -268q7 -10 18.5 -13t22 2.5t14 17t-2.5 22.5l-150 252l79 103l168 -284q6 -10 18 -13t22.5 3t13.5 17.5t-3 21.5l-83 141h337l-84 -141q-6 -10 -2.5 -21.5t14 -17.5t22 -3t18.5 13l168 284l79 -103l-150 -252q-6 -11 -3 -22.5t13.5 -17t22.5 -2.5t18 13
l160 268q9 17 -2 32z" />
  </font>
</defs>
</svg>
