<?xml version="1.0" standalone="no"?><!DOCTYPE svg PUBLIC "-//W3C//DTD SVG 1.1//EN" "http://www.w3.org/Graphics/SVG/1.1/DTD/svg11.dtd"><svg width="18" height="18" viewBox="0 0 18 18" version="1.1" xmlns="http://www.w3.org/2000/svg" xmlns:xlink="http://www.w3.org/1999/xlink"><defs><style type="text/css"><![CDATA[
@font-face { font-family: ifont; src: url(http://at.alicdn.com/t/font_1442373896_4754455.eot?#iefix) format(embedded-opentype), url(http://at.alicdn.com/t/font_1442373896_4754455.woff) format(woff), url(http://at.alicdn.com/t/font_1442373896_4754455.ttf) format(truetype), url(http://at.alicdn.com/t/font_1442373896_4754455.svg#ifont) format(svg); }

]]></style></defs><g class="transform-group"><g transform="scale(0.017578125, 0.017578125)"><path d="M842.24 163.84l-97.216 97.536-43.968-44.096L729.6 188.544c11.968-11.712 11.968-31.104 0-43.072l-86.912-87.232L582.208 118.976l61.76 62.016L574.144 251.136 512.384 189.12 451.84 249.856l87.04 87.36c11.968 11.968 30.976 11.968 42.688 0l28.672-28.8 43.968 44.096L398.592 609.088C325.44 565.952 229.888 575.872 167.104 638.848c-74.496 74.752-74.496 196.032 0 270.784 74.496 74.752 195.328 74.752 269.824 0 62.784-62.976 72.64-158.912 29.696-232.32l443.648-445.312c3.328-3.392 3.328-8.704 0-12.032L854.272 163.84C851.008 160.448 845.568 160.448 842.24 163.84zM366.144 838.656c-35.456 35.584-92.864 35.584-128.32 0s-35.456-93.184 0-128.768 92.864-35.584 128.32 0S401.6 803.072 366.144 838.656z" fill="#272636"></path></g></g></svg>